<svg width="35" height="35" viewBox="0 0 35 35" fill="none" xmlns="http://www.w3.org/2000/svg">
<path d="M1.94444 19.4444H13.6111C14.1268 19.4444 14.6214 19.2396 14.986 18.8749C15.3507 18.5103 15.5556 18.0157 15.5556 17.5V1.94444C15.5556 1.42875 15.3507 0.934169 14.986 0.569515C14.6214 0.20486 14.1268 0 13.6111 0H1.94444C1.42875 0 0.934169 0.20486 0.569515 0.569515C0.20486 0.934169 0 1.42875 0 1.94444V17.5C0 18.0157 0.20486 18.5103 0.569515 18.8749C0.934169 19.2396 1.42875 19.4444 1.94444 19.4444ZM0 33.0556C0 33.5713 0.20486 34.0658 0.569515 34.4305C0.934169 34.7951 1.42875 35 1.94444 35H13.6111C14.1268 35 14.6214 34.7951 14.986 34.4305C15.3507 34.0658 15.5556 33.5713 15.5556 33.0556V25.2778C15.5556 24.7621 15.3507 24.2675 14.986 23.9028C14.6214 23.5382 14.1268 23.3333 13.6111 23.3333H1.94444C1.42875 23.3333 0.934169 23.5382 0.569515 23.9028C0.20486 24.2675 0 24.7621 0 25.2778V33.0556ZM19.4444 33.0556C19.4444 33.5713 19.6493 34.0658 20.014 34.4305C20.3786 34.7951 20.8732 35 21.3889 35H33.0556C33.5713 35 34.0658 34.7951 34.4305 34.4305C34.7951 34.0658 35 33.5713 35 33.0556V19.4444C35 18.9287 34.7951 18.4342 34.4305 18.0695C34.0658 17.7049 33.5713 17.5 33.0556 17.5H21.3889C20.8732 17.5 20.3786 17.7049 20.014 18.0695C19.6493 18.4342 19.4444 18.9287 19.4444 19.4444V33.0556ZM21.3889 13.6111H33.0556C33.5713 13.6111 34.0658 13.4062 34.4305 13.0416C34.7951 12.6769 35 12.1824 35 11.6667V1.94444C35 1.42875 34.7951 0.934169 34.4305 0.569515C34.0658 0.20486 33.5713 0 33.0556 0H21.3889C20.8732 0 20.3786 0.20486 20.014 0.569515C19.6493 0.934169 19.4444 1.42875 19.4444 1.94444V11.6667C19.4444 12.1824 19.6493 12.6769 20.014 13.0416C20.3786 13.4062 20.8732 13.6111 21.3889 13.6111Z" fill="#797777"/>
</svg>
